<?xml version="1.0" standalone="no"?>
<!DOCTYPE svg PUBLIC "-//W3C//DTD SVG 20010904//EN"
 "http://www.w3.org/TR/2001/REC-SVG-20010904/DTD/svg10.dtd">
<svg version="1.0" xmlns="http://www.w3.org/2000/svg"
 width="1265.000000pt" height="651.000000pt" viewBox="0 0 1265.000000 651.000000"
 preserveAspectRatio="xMidYMid meet">
<metadata>
Created by potrace 1.14, written by Peter Selinger 2001-2017
</metadata>
<g transform="translate(0.000000,651.000000) scale(0.100000,-0.100000)"
fill="#000000" stroke="none">
<path d="M0 3265 l0 -3245 6325 0 6325 0 0 3245 0 3245 -6325 0 -6325 0 0
-3245z m9533 2086 c9 0 17 -8 17 -18 0 -14 2 -14 21 3 14 12 23 15 26 8 2 -7
13 -9 25 -7 11 3 23 1 27 -5 5 -9 18 -6 46 8 46 24 68 25 84 6 7 -8 20 -12 30
-9 9 2 24 -4 32 -13 13 -16 12 -17 -5 -11 -15 6 -17 5 -8 -6 7 -8 8 -18 4 -23
-4 -4 0 -3 9 4 13 9 22 9 47 -4 34 -16 50 -34 32 -34 -6 0 -10 -7 -8 -16 2 -8
6 -15 11 -14 4 0 17 -9 30 -20 12 -12 30 -19 39 -16 10 2 21 0 24 -5 3 -5 2
-9 -3 -8 -19 3 -33 -2 -33 -12 0 -5 5 -7 10 -4 19 11 32 -6 18 -23 -7 -10 -9
-14 -4 -10 14 12 46 -35 34 -50 -8 -10 -14 -10 -27 0 -9 7 0 -5 19 -26 19 -22
29 -35 21 -31 -9 5 -12 4 -7 -3 4 -7 14 -12 22 -12 8 0 12 -5 9 -10 -4 -6 -10
-8 -15 -5 -5 3 -8 -3 -7 -14 1 -14 5 -17 13 -11 12 11 38 -35 29 -51 -4 -5 5
-13 19 -19 14 -5 26 -12 26 -16 0 -3 -7 -3 -16 0 -8 3 -12 2 -9 -4 3 -6 10
-10 15 -10 5 0 21 -5 37 -12 15 -6 33 -12 38 -13 50 -10 64 -27 80 -98 5 -26
4 -27 -17 -17 l-23 11 24 -20 c13 -12 18 -21 12 -21 -6 0 -11 -8 -11 -17 0
-13 2 -15 8 -5 5 7 16 10 25 6 13 -5 16 -2 11 10 -9 24 1 19 20 -8 11 -18 13
-27 4 -32 -7 -4 -8 -3 -4 4 4 7 1 12 -9 12 -10 0 -13 -5 -9 -12 6 -10 4 -10
-7 -2 -8 6 -21 11 -29 11 -8 0 -26 3 -40 7 -23 7 -23 6 5 -13 17 -12 25 -21
18 -21 -6 0 -15 5 -18 10 -4 6 -10 8 -15 5 -13 -8 -41 6 -33 18 4 6 1 7 -7 2
-7 -4 -15 -2 -20 4 -15 25 -208 12 -231 -15 -6 -8 -8 -14 -4 -14 4 0 -1 -12
-11 -27 -29 -46 -68 -83 -86 -83 -10 0 -18 -4 -18 -9 0 -8 -41 -51 -75 -80
-14 -11 -14 -15 -3 -22 10 -7 10 -9 -2 -9 -12 0 -12 -2 -1 -9 9 -6 10 -10 2
-16 -8 -4 -9 -11 -3 -18 5 -7 8 -29 7 -49 -2 -21 1 -38 7 -38 5 0 8 -6 6 -12
-4 -12 0 -20 30 -53 6 -7 12 -19 12 -26 0 -7 3 -10 6 -6 3 3 16 -4 28 -16 16
-16 30 -21 58 -19 27 2 48 -4 75 -22 20 -14 39 -24 41 -21 5 4 -60 64 -70 65
-19 0 -5 18 17 23 14 2 23 2 20 -1 -7 -8 75 -43 86 -37 5 3 18 1 30 -6 15 -8
19 -8 15 0 -4 6 0 11 8 11 9 0 16 5 16 10 0 6 14 10 30 10 35 0 40 -17 8 -23
-13 -2 9 -5 47 -5 39 -1 86 2 105 7 20 4 46 4 57 0 17 -6 21 -5 16 7 -3 10 0
12 10 8 9 -3 16 -13 16 -22 0 -21 28 -150 30 -139 0 5 6 5 11 2 7 -4 7 -13 0
-26 -7 -13 -7 -19 0 -19 5 0 10 -7 10 -15 0 -8 3 -15 8 -15 4 0 8 -10 8 -23 1
-12 3 -26 4 -32 5 -23 -1 -56 -9 -51 -5 4 -7 -4 -3 -16 4 -15 2 -19 -7 -13
-10 5 -11 2 -7 -11 3 -11 -1 -31 -9 -46 -12 -24 -12 -28 1 -28 10 0 8 -6 -7
-21 -17 -17 -19 -23 -8 -30 11 -8 11 -12 -4 -23 -18 -14 -18 -15 0 -25 11 -6
13 -11 5 -11 -8 0 -10 -5 -6 -12 5 -8 2 -9 -9 -5 -14 5 -16 2 -12 -21 3 -15 2
-21 -1 -14 -3 6 -10 9 -16 6 -6 -4 -13 -2 -17 4 -4 6 -12 4 -21 -6 -13 -14
-12 -15 4 -9 15 6 17 3 13 -13 -3 -11 -1 -20 5 -20 5 0 6 -5 3 -11 -5 -6 -11
-4 -19 7 -12 15 -13 15 -19 1 -4 -10 -13 -14 -22 -11 -8 3 -12 10 -9 15 3 5 0
9 -5 9 -6 0 -11 -5 -11 -12 0 -6 -7 -3 -15 8 -8 11 -15 14 -15 7 0 -7 -5 -13
-11 -13 -5 0 -7 5 -4 10 3 6 1 10 -5 10 -6 0 -8 5 -4 12 4 7 3 8 -4 4 -6 -4
-22 -2 -34 5 -17 9 -23 9 -26 0 -3 -9 -8 -9 -17 -1 -9 7 -15 8 -19 1 -4 -6
-13 -8 -22 -4 -8 3 -14 2 -13 -3 4 -23 -3 -34 -22 -34 -11 0 -18 -4 -15 -9 3
-5 15 -7 25 -4 10 3 21 1 24 -4 3 -5 -13 -9 -36 -8 -23 0 -48 -4 -55 -9 -9 -6
-11 -4 -6 8 5 12 2 15 -10 10 -9 -3 -16 -11 -16 -16 0 -6 -11 -8 -25 -6 -17 4
-25 1 -25 -9 0 -9 5 -11 13 -7 8 5 8 2 -2 -9 -11 -14 -11 -17 0 -18 10 0 11
-2 1 -6 -6 -2 -10 -8 -8 -12 8 -13 -28 -9 -44 4 -22 19 -88 45 -149 60 -43 10
-63 11 -95 1 -33 -10 -46 -9 -66 1 -14 7 -38 13 -54 13 l-30 0 22 20 c12 12
23 26 23 33 1 7 2 19 3 27 0 8 7 14 14 12 8 -1 11 2 8 7 -10 16 21 34 40 23
20 -11 65 9 102 46 25 25 39 27 79 11 43 -18 144 -12 166 9 21 22 25 108 6
143 -7 13 -15 46 -17 74 -1 27 -8 53 -15 57 -7 4 -8 8 -3 8 5 0 4 6 -1 13 -6
6 -18 36 -27 65 -10 28 -22 52 -28 52 -6 0 -8 9 -5 20 3 11 1 20 -4 20 -8 0
-13 -15 -10 -32 0 -5 -4 -8 -11 -8 -6 0 -4 -6 6 -13 11 -8 16 -20 13 -28 -4
-11 -6 -10 -6 3 -1 19 -41 13 -41 -6 0 -6 -5 -4 -10 4 -8 13 -10 12 -10 -3 0
-10 -4 -16 -8 -13 -4 2 -8 -4 -8 -15 0 -10 3 -19 7 -19 3 0 6 -17 5 -37 -2
-40 11 -64 30 -56 7 2 15 -1 19 -6 3 -6 10 -9 15 -6 19 11 56 -18 77 -61 12
-24 18 -42 13 -39 -5 3 -11 -3 -15 -14 -5 -16 -11 -18 -43 -10 -20 5 -58 9
-83 9 -25 0 -49 3 -53 7 -10 10 -37 13 -31 3 8 -13 -75 -96 -83 -84 -4 6 -17
10 -30 9 -26 -2 -36 25 -28 75 4 26 -1 37 -22 58 -18 16 -23 26 -14 29 6 3 12
9 12 14 0 6 -5 7 -11 3 -8 -5 -10 1 -7 20 3 14 1 26 -4 26 -6 0 -7 11 -4 25 5
18 3 23 -7 19 -10 -4 -13 3 -9 26 2 16 8 33 13 36 5 3 9 14 9 25 0 10 4 19 9
19 10 0 8 27 -4 54 -6 13 -4 22 6 30 17 13 42 66 35 74 -3 2 1 16 8 31 7 14
13 52 14 83 2 49 -1 60 -23 82 -14 14 -25 23 -25 20 0 -2 -11 3 -25 12 -14 9
-22 21 -18 28 4 6 0 5 -9 -2 -12 -10 -18 -10 -23 -1 -4 6 -2 15 5 19 8 5 3 10
-15 14 -14 4 -30 4 -36 0 -6 -3 -7 4 -3 20 5 20 2 26 -10 26 -9 0 -16 -6 -17
-12 0 -8 -3 -7 -6 2 -9 21 -30 40 -37 33 -3 -4 -6 3 -6 15 0 12 -4 21 -8 20
-4 -2 -36 11 -69 27 -48 23 -63 36 -68 58 -4 15 -10 27 -15 27 -13 0 1 38 17
44 8 3 11 10 8 16 -3 5 -1 10 6 10 7 0 21 8 31 17 17 15 20 15 28 3 8 -13 10
-12 10 3 0 9 7 17 15 17 11 0 14 7 9 25 -6 26 10 36 20 13 6 -15 -1 28 -9 57
-4 13 1 28 13 41 12 12 18 31 17 48 -3 22 0 26 16 21 13 -4 19 -2 19 9 0 9 -6
16 -13 16 -7 0 -13 9 -14 20 -1 15 4 20 23 20 14 0 23 4 20 9 -4 5 6 14 21 19
18 7 22 11 11 11 -10 1 -18 8 -18 16 0 8 -6 15 -12 15 -7 0 1 8 19 16 20 10
30 21 26 30 -3 8 -2 14 1 14 4 0 10 -9 14 -20 7 -19 9 -19 27 -5 19 14 19 15
1 8 -13 -4 -17 -3 -12 5 4 7 2 12 -4 12 -7 0 -9 8 -5 19 3 11 0 23 -6 27 -7 4
-9 3 -6 -2 3 -6 2 -16 -4 -24 -7 -12 -9 -10 -9 8 0 13 -4 20 -10 17 -13 -8
-13 18 1 32 5 5 20 9 32 8 12 -1 30 -3 40 -4z m-393 -1367 c0 -8 5 -14 11 -14
6 0 9 7 5 15 -3 8 -1 15 4 15 6 0 10 -6 10 -14 0 -7 7 -19 15 -26 9 -8 15 -9
15 -2 0 6 -4 14 -10 17 -5 3 -10 13 -10 21 0 14 2 13 16 0 12 -12 20 -13 35
-6 15 8 19 7 19 -5 0 -8 6 -15 13 -15 17 0 20 -49 5 -69 -7 -9 -8 -13 -4 -9
12 10 37 -12 29 -25 -3 -5 -6 -25 -5 -43 1 -18 -4 -37 -11 -41 -7 -4 -12 -12
-13 -18 -4 -35 -18 -55 -39 -55 -19 0 -22 -4 -18 -22 3 -13 3 -20 -2 -16 -4 4
-15 0 -23 -9 -15 -15 -17 -14 -27 11 -6 14 -15 23 -19 19 -4 -5 -7 -3 -6 2 4
20 0 35 -10 35 -5 0 -11 -8 -11 -17 -1 -17 -2 -17 -6 0 -2 9 -10 17 -16 17 -8
0 -7 3 2 9 8 5 11 16 6 30 -3 12 -10 19 -15 16 -4 -3 -14 10 -20 28 l-12 32
-9 -25 c-9 -25 -9 -25 -5 3 2 15 -1 27 -7 27 -6 0 -7 3 -4 6 4 4 13 1 22 -6
12 -10 15 -10 15 0 0 8 10 11 30 8 34 -5 36 -3 15 19 -9 8 -25 13 -35 10 -11
-3 -20 -3 -20 0 0 9 28 32 32 27 3 -2 11 9 18 26 10 23 16 28 26 19 7 -6 21
-9 31 -6 15 4 14 5 -3 6 -15 1 -23 9 -26 26 -3 13 -1 22 3 19 5 -3 9 -12 9
-20z m738 -656 c2 -10 -2 -18 -8 -18 -7 0 -23 -9 -37 -20 -22 -17 -23 -20 -7
-21 18 0 18 -1 -1 -9 -11 -5 -14 -9 -7 -9 7 -1 11 -5 7 -10 -3 -5 -1 -12 5
-16 5 -3 10 -1 10 4 0 6 5 11 11 11 5 0 7 -6 3 -12 -6 -9 -3 -9 9 1 9 7 24 11
32 7 9 -3 13 -2 10 4 -3 6 -1 10 4 10 6 0 11 -7 11 -16 0 -8 4 -13 9 -10 5 3
11 0 14 -7 11 -29 -11 -39 -89 -42 -43 -2 -124 -7 -179 -10 -67 -5 -97 -3 -90
3 6 6 25 13 43 15 39 6 48 12 33 22 -6 3 -11 1 -11 -5 0 -7 -7 -5 -16 4 -8 9
-20 14 -25 11 -5 -4 -9 -1 -9 5 0 6 -5 8 -11 4 -8 -4 -9 0 -4 15 4 12 2 21 -4
21 -6 0 -10 -3 -10 -7 4 -22 -3 -32 -16 -27 -8 4 -15 17 -15 31 0 13 -4 21
-10 18 -5 -3 -10 1 -10 10 0 9 -4 13 -10 10 -5 -3 -10 -2 -10 4 0 6 9 15 20
21 15 8 20 8 20 -2 0 -9 3 -9 10 2 11 17 82 25 225 25 87 0 100 -2 103 -17z
m52 -225 c10 10 10 7 0 -12 -7 -13 -16 -36 -20 -51 -7 -25 -6 -27 13 -22 16 4
19 2 14 -11 -4 -10 -1 -17 6 -17 8 0 6 -4 -3 -10 -10 -6 -11 -10 -2 -10 6 0
12 -6 12 -14 0 -8 6 -16 13 -19 8 -3 13 -16 11 -29 -1 -12 -3 -26 -3 -30 -1
-5 -4 -7 -8 -6 -21 5 -52 -16 -63 -43 -11 -25 -31 -41 -70 -54 -3 -1 -13 -5
-22 -9 -9 -4 -25 -9 -35 -11 -10 -2 -20 -4 -23 -5 -5 -2 -106 0 -127 2 -16 2
-17 15 -1 20 6 2 -7 17 -30 34 -35 24 -41 33 -36 54 6 26 23 42 36 34 9 -5 12
9 8 40 -1 11 3 15 9 12 6 -4 11 1 11 11 0 15 2 16 10 3 8 -12 10 -11 10 8 0
12 4 22 9 22 5 0 12 12 15 26 10 37 31 55 65 56 17 1 29 6 28 11 -1 7 20 11
52 12 35 0 56 5 59 13 3 10 9 10 27 -2 17 -11 25 -12 35 -3z m636 -370 c27
-35 56 -71 64 -81 8 -9 12 -13 8 -8 -11 14 -10 26 1 26 5 0 14 -15 20 -33 7
-19 26 -56 43 -83 17 -27 32 -56 33 -64 1 -8 7 -26 14 -39 l14 -25 -31 25
c-17 13 -37 41 -43 62 -14 42 -22 44 -65 18 l-31 -19 3 24 c1 13 -3 27 -10 31
-20 13 -26 41 -10 53 20 18 17 29 -11 42 -29 13 -63 82 -57 115 2 13 6 23 7
21 1 -2 25 -31 51 -65z m404 -323 c30 -15 65 -30 78 -34 12 -4 22 -13 22 -19
0 -7 5 -4 11 6 12 21 34 18 111 -15 28 -12 45 -25 42 -32 -8 -20 42 -46 99
-53 48 -6 96 -28 97 -45 0 -5 -22 -8 -48 -8 -59 0 -67 -6 -46 -38 8 -13 13
-26 10 -30 -4 -3 4 -16 16 -29 21 -23 15 -29 -16 -17 -9 3 -14 9 -12 13 2 3
-7 7 -20 7 -31 2 -56 23 -50 41 3 8 -2 17 -12 20 -9 4 -23 13 -31 21 -9 9 -25
12 -44 8 -16 -3 -36 -6 -43 -6 -11 0 -11 -5 -1 -27 6 -16 16 -31 22 -35 5 -4
-6 -8 -25 -8 -25 0 -31 -3 -21 -9 12 -8 10 -16 -12 -45 -15 -19 -27 -37 -27
-39 0 -3 20 -8 45 -12 40 -5 49 -3 76 19 34 29 45 32 52 14 3 -7 6 -2 6 10 1
15 6 22 14 19 6 -2 11 -10 9 -17 -2 -11 0 -11 11 -1 12 9 21 9 43 -1 40 -17
39 -16 19 -38 -17 -19 -41 -28 -31 -12 2 4 1 14 -5 22 -7 12 -9 12 -9 1 0 -8
-7 -11 -19 -8 -14 3 -18 1 -14 -9 3 -8 9 -14 14 -14 17 0 9 -27 -16 -50 -14
-13 -25 -29 -25 -36 0 -13 65 -74 80 -74 5 0 19 -18 31 -39 26 -46 57 -71 120
-95 45 -17 159 -99 159 -114 0 -4 -14 -22 -30 -40 l-30 -33 -43 34 c-23 19
-71 49 -106 66 -75 36 -96 54 -117 95 -8 17 -41 60 -74 96 l-59 65 -35 -34
c-38 -37 -37 -46 6 -91 13 -14 37 -45 52 -70 51 -78 98 -120 188 -167 79 -41
91 -51 131 -111 53 -79 139 -171 195 -206 53 -33 58 -44 25 -51 -15 -4 -38
-11 -51 -16 -13 -5 -30 -9 -38 -9 -18 0 -138 121 -170 172 -38 59 -88 104
-162 143 -89 46 -222 186 -257 268 -8 20 -18 37 -22 37 -4 0 -17 -10 -30 -21
-17 -17 -23 -19 -27 -8 -7 24 -25 102 -30 137 -5 31 -5 32 32 32 30 0 45 7 71
34 32 33 32 33 9 40 -44 11 -63 6 -89 -26 l-27 -32 -12 56 c-11 49 -19 61 -56
88 -38 27 -44 36 -44 68 0 20 -3 47 -6 60 -9 32 7 27 52 -16 21 -21 53 -48 70
-60 29 -20 33 -20 45 -5 8 9 29 22 48 30 28 12 35 12 42 1 7 -10 9 -9 9 5 0
10 8 18 23 18 28 2 -81 17 -153 21 -47 3 -55 6 -58 24 -3 18 1 21 25 17 l28
-4 -25 15 -25 15 32 1 c42 0 49 14 23 49 -19 27 -32 33 -99 46 -29 5 -40 16
-23 22 6 3 9 9 6 15 -9 14 17 29 40 22 15 -5 18 -3 13 10 -4 9 -10 23 -13 31
-7 18 2 15 86 -25z m-1246 -182 c-6 -21 -5 -22 11 -8 11 8 16 10 12 4 -4 -7 2
-14 13 -17 27 -7 25 -27 -2 -28 l-23 -2 23 -4 c12 -2 22 -10 22 -18 0 -7 3
-20 6 -29 4 -10 1 -16 -9 -16 -10 0 -13 -9 -11 -32 3 -18 -1 -54 -8 -80 -11
-43 -15 -48 -40 -48 -15 0 -28 -5 -28 -11 0 -8 -4 -8 -14 0 -11 10 -16 8 -21
-8 -9 -28 -22 -26 -27 4 -3 14 -1 25 5 25 6 0 7 3 4 7 -4 3 -2 12 4 20 9 9 8
13 0 13 -6 0 -11 11 -11 25 0 14 -4 25 -9 25 -4 0 -7 11 -6 25 2 14 -2 25 -8
25 -7 0 -5 5 3 10 8 5 11 10 6 10 -4 0 -1 12 9 26 9 14 15 35 12 45 -4 14 0
19 13 19 27 0 51 11 44 21 -3 5 2 6 10 3 9 -3 16 -1 16 5 0 6 3 11 6 11 3 0 2
-10 -2 -22z m-2184 -293 c22 -23 31 -38 24 -43 -6 -4 -16 -17 -23 -30 -11 -21
-9 -23 19 -28 31 -7 64 -40 54 -56 -3 -4 1 -6 8 -3 7 3 20 0 28 -5 12 -8 13
-11 1 -19 -9 -6 -10 -11 -2 -15 6 -4 11 -2 11 3 0 6 8 11 18 11 14 0 15 -2 2
-10 -13 -8 -13 -10 2 -10 9 0 20 -5 24 -12 5 -7 3 -8 -7 -3 -9 5 -8 1 3 -11 9
-10 17 -23 17 -29 1 -5 5 -10 10 -10 18 0 25 -16 11 -25 -13 -8 -12 -10 3 -11
37 -3 42 -5 39 -17 -1 -8 7 -11 25 -7 16 3 22 2 14 -1 -11 -5 -11 -8 0 -14 10
-7 9 -14 -5 -34 -19 -30 -15 -32 19 -10 29 19 39 42 17 40 -9 0 -17 6 -17 14
0 8 -10 16 -22 18 -13 2 -23 8 -23 14 0 5 -8 7 -17 4 -15 -5 -15 -4 1 9 11 8
15 16 8 16 -7 1 -16 2 -22 3 -18 2 -14 21 4 24 12 3 47 -27 105 -88 l86 -92
35 36 c42 43 52 44 79 10 27 -34 27 -34 -9 -79 l-31 -38 28 -29 c30 -32 45
-35 63 -13 23 28 29 15 14 -27 l-15 -42 25 23 c13 12 27 18 30 13 18 -29 -55
-134 -94 -137 -25 -2 -91 -53 -88 -68 1 -7 -6 -24 -16 -39 -17 -26 -23 -28
-86 -28 -58 0 -68 -2 -66 -17 0 -12 -5 -17 -16 -15 -9 1 -19 -2 -23 -8 -4 -6
4 -10 19 -10 19 0 26 -6 31 -31 9 -39 1 -46 -57 -52 l-48 -5 0 59 0 59 34 0
c19 0 38 5 41 10 3 6 0 10 -7 10 -23 0 50 60 74 61 15 1 9 5 -19 12 -23 7 -51
21 -62 31 -21 19 -22 19 -51 -9 -24 -23 -34 -26 -62 -21 -18 3 -39 15 -46 26
-11 17 -8 25 23 59 19 21 35 43 35 48 0 5 -13 22 -30 38 -16 16 -30 33 -30 37
0 13 62 68 76 68 7 0 26 -16 43 -36 l31 -35 45 36 45 37 -58 65 c-31 36 -56
70 -54 75 1 5 -1 7 -6 4 -12 -7 -184 168 -175 179 4 4 3 5 -3 2 -12 -7 -57 35
-49 46 3 4 2 5 -2 2 -9 -7 -63 45 -63 60 0 6 -16 26 -35 45 -19 19 -35 38 -35
42 0 4 26 8 58 8 53 0 61 -3 92 -35z m-270 -55 c0 -5 7 -10 15 -10 8 0 15 -4
15 -10 0 -5 -5 -10 -12 -10 -6 0 -2 -10 10 -23 12 -13 22 -30 22 -38 1 -9 8
-6 21 10 l20 24 40 -39 c38 -37 38 -39 18 -46 -13 -5 -28 -4 -38 4 -13 10 -14
10 -4 -2 10 -11 10 -17 0 -29 -11 -14 -10 -14 6 -2 12 9 17 10 17 2 0 -7 4 -9
10 -6 6 3 7 -1 4 -9 -3 -9 -2 -16 4 -16 6 0 9 -8 7 -17 -1 -10 4 -31 12 -46
24 -47 10 -40 -46 23 -29 33 -48 60 -42 60 6 0 8 7 5 15 -5 12 -10 13 -20 5
-10 -9 -24 1 -63 42 -55 57 -59 72 -35 106 16 23 34 29 34 12z m1079 -72 c-29
-81 -33 -87 -99 -115 -30 -14 -66 -33 -80 -43 -25 -18 -26 -17 -57 9 -27 23
-30 28 -18 44 7 9 35 24 63 32 30 9 69 32 99 58 66 59 105 88 110 83 3 -2 -5
-33 -18 -68z m1944 -125 c-7 -3 -13 -11 -13 -19 0 -9 -3 -13 -7 -11 -5 3 -8
-18 -9 -45 -1 -28 -7 -53 -13 -58 -7 -4 -12 -10 -12 -14 3 -19 0 -27 -8 -22
-5 4 -7 -2 -5 -11 3 -10 -4 -29 -13 -44 -20 -28 -106 -109 -117 -109 -4 0 -16
-8 -27 -19 -11 -10 -32 -21 -47 -24 -15 -3 -33 -15 -40 -27 -12 -20 -11 -21
35 -19 26 1 54 7 61 12 10 8 16 7 21 -1 6 -10 14 -9 37 3 35 18 64 19 64 3 1
-7 10 -2 22 12 11 14 27 24 35 22 10 -2 12 1 7 9 -4 8 -3 10 4 5 6 -4 30 10
54 31 40 35 37 21 -4 -20 -32 -32 -118 -77 -159 -82 -23 -3 -45 -8 -50 -11 -5
-3 -9 0 -9 7 0 8 -4 8 -12 2 -7 -6 -47 -14 -88 -18 -41 -4 -87 -9 -101 -10
-14 -2 -44 -12 -67 -24 -23 -11 -48 -21 -56 -21 -16 0 -46 -38 -50 -62 -1 -7
-8 -24 -15 -37 -7 -13 -9 -21 -3 -17 16 9 12 -72 -4 -88 -17 -18 -18 -30 -1
-19 11 6 -1 -16 -38 -69 -26 -39 -34 19 -9 67 22 43 44 95 39 95 -3 0 -14 -18
-25 -40 -12 -24 -28 -40 -38 -40 -10 0 -23 -5 -30 -12 -24 -24 -13 14 19 65
l31 50 -33 31 c-23 22 -27 24 -14 6 27 -33 -51 32 -81 68 -14 17 -26 23 -38
19 -10 -4 -15 -3 -11 3 3 5 -3 14 -14 19 -28 16 -38 13 -15 -3 17 -13 14 -13
-24 -3 -36 10 -53 23 -94 74 -46 58 -86 84 -72 48 8 -21 0 -19 -49 12 -23 15
-43 28 -45 29 -2 1 1 12 7 23 13 23 13 22 -81 97 -32 25 -58 42 -58 38 0 -3
-11 1 -25 10 -17 11 -25 13 -25 5 0 -24 -13 1 -16 31 -2 20 0 29 7 24 6 -3 8
-13 4 -22 -3 -9 -3 -13 1 -9 4 4 18 -3 31 -15 32 -30 29 -10 -4 24 -14 15 -24
30 -21 34 10 9 69 -26 63 -37 -4 -5 -3 -9 2 -8 22 4 34 -4 48 -31 9 -17 13
-35 10 -40 -3 -6 1 -7 9 -4 10 4 18 -1 22 -10 9 -22 81 -59 89 -46 4 6 -4 19
-17 29 -13 11 -20 22 -16 26 11 12 62 -22 113 -75 50 -52 50 -52 20 -48 -16 3
-39 8 -50 12 -19 7 -19 7 -2 -7 17 -14 116 -31 126 -22 2 3 -1 11 -7 17 -9 9
-9 15 0 26 20 23 18 43 -8 77 -25 33 -33 58 -12 37 7 -7 26 -12 43 -13 26 0
27 -2 10 -9 -11 -5 -14 -9 -7 -9 7 -1 11 -5 7 -10 -3 -5 0 -13 7 -17 7 -4 10
-4 6 1 -10 10 37 35 66 35 12 0 50 -10 85 -21 47 -16 65 -27 72 -46 11 -31 11
-36 -1 -28 -22 14 6 -30 39 -62 27 -26 37 -30 39 -18 4 19 22 20 22 0 0 -18
11 -19 29 -2 11 10 13 9 9 -3 -4 -10 0 -16 12 -16 10 0 16 5 13 12 -2 6 3 14
11 17 10 4 13 1 9 -9 -3 -9 1 -14 12 -14 11 0 15 -5 12 -14 -4 -10 1 -13 17
-12 36 4 51 16 35 28 -11 8 -10 9 3 4 10 -3 28 -1 40 4 14 5 17 9 8 10 -12 0
-11 4 4 15 11 8 14 15 8 15 -7 0 -12 7 -12 15 0 8 -5 15 -12 15 -9 0 -9 3 -1
11 7 7 9 32 6 65 -4 41 -2 59 9 72 9 9 19 28 23 40 7 25 58 52 98 52 14 0 30
7 37 15 7 9 15 13 18 11 2 -3 14 1 26 9 11 8 34 15 51 15 16 0 39 7 49 15 11
8 22 12 25 9 3 -4 0 -9 -6 -11z m1497 -255 c25 -20 70 -53 101 -75 57 -38 128
-114 162 -172 l18 -31 -62 7 c-55 5 -66 10 -104 49 -23 23 -62 55 -86 70 -80
52 -184 144 -218 193 l-33 49 33 30 33 29 55 -56 c31 -31 76 -73 101 -93z
m-3377 10 c25 -31 43 -59 40 -62 -4 -3 0 -6 8 -6 8 -1 27 -11 42 -24 35 -28
23 -35 -49 -31 -36 3 -54 10 -68 27 l-18 23 33 6 34 6 -32 2 c-18 0 -35 0 -37
-1 -6 -4 -46 34 -46 42 0 18 32 81 39 78 4 -2 29 -28 54 -60z m2552 -70 c14
-80 12 -88 -33 -121 -42 -30 -43 -31 -71 -14 -16 9 -40 17 -53 16 -17 0 -10
-6 27 -23 32 -14 45 -25 37 -30 -7 -4 -17 -4 -22 -1 -6 4 -9 3 -8 -2 7 -19
-56 -18 -76 2 -8 8 -21 15 -29 15 -38 0 -13 39 26 40 9 0 17 4 17 9 0 10 159
141 172 141 4 0 10 -15 13 -32z m-490 -108 c3 -5 13 -6 23 -3 12 3 19 -1 19
-11 0 -9 -3 -14 -5 -11 -3 3 -12 -1 -21 -8 -14 -11 -15 -10 -1 8 14 18 14 19
-1 7 -9 -7 -19 -27 -23 -44 -8 -40 -23 -58 -48 -58 -12 0 -18 -5 -15 -13 3 -7
-9 -28 -25 -47 -16 -19 -27 -29 -23 -22 4 7 0 12 -9 12 -20 0 -20 10 -2 36 15
20 5 44 -20 44 -7 0 -16 5 -20 12 -4 6 -3 8 3 5 14 -9 30 11 45 59 11 34 18
40 48 44 38 6 68 2 75 -10z m766 -38 c24 -16 52 -38 62 -50 l18 -20 -95 2
c-53 1 -98 5 -102 9 -11 10 -34 -20 -34 -45 0 -13 -6 -32 -13 -42 -13 -18 -15
-17 -55 8 -23 14 -50 26 -59 26 -14 1 -12 5 10 23 15 12 47 41 72 63 37 34 52
42 86 42 23 1 44 3 47 6 9 10 16 7 63 -22z m947 -33 c18 -17 31 -33 28 -36 -3
-3 -32 -5 -65 -4 -34 0 -61 -4 -61 -9 0 -11 25 -14 78 -12 17 1 32 -1 32 -4 0
-3 -12 -21 -27 -41 -26 -34 -28 -35 -81 -28 -70 9 -82 14 -82 33 0 9 -9 26
-21 38 l-21 22 41 -9 c50 -11 70 -3 107 46 14 19 29 35 33 35 3 0 21 -14 39
-31z m-3165 -54 c9 -19 23 -35 30 -35 8 0 27 -10 42 -22 25 -19 26 -23 11 -34
-9 -6 -26 -10 -36 -7 -11 3 -20 1 -20 -5 0 -6 14 -10 33 -8 31 3 34 1 32 -23
-1 -14 1 -30 4 -36 3 -5 6 -27 7 -47 1 -21 2 -39 4 -40 6 -9 12 -54 15 -128 1
-47 4 -87 5 -90 5 -12 -3 -46 -13 -59 -10 -12 -9 -13 1 -7 11 7 13 -4 8 -60
-4 -38 -7 -77 -7 -86 0 -20 -26 -32 -35 -16 -5 7 -2 8 6 3 9 -6 11 -4 5 5 -6
9 -4 11 5 5 9 -5 11 -4 6 4 -6 9 -11 9 -22 0 -10 -8 -14 -8 -14 0 0 6 0 14 0
19 0 4 10 7 22 7 13 0 22 7 24 18 2 14 -1 16 -11 7 -10 -8 -16 -8 -22 2 -4 7
-18 14 -31 14 -12 1 -20 -1 -17 -4 2 -3 -1 -12 -8 -21 -11 -14 -10 -14 6 -2
10 8 17 9 17 3 0 -6 -5 -14 -10 -17 -6 -4 -8 -11 -5 -16 3 -5 0 -7 -7 -4 -8 3
-14 25 -15 58 -2 44 2 56 24 79 22 23 29 26 42 15 14 -10 14 -10 4 4 -7 9 -10
20 -5 25 4 5 -8 -4 -26 -21 l-32 -29 1 104 c1 58 0 107 -1 110 -1 3 -4 39 -5
80 -2 41 -4 76 -5 78 -1 1 -3 10 -4 20 -1 9 -5 23 -9 30 -5 8 -4 11 4 10 6 -2
14 3 17 11 2 8 0 11 -5 8 -19 -12 -30 10 -36 71 -3 34 -2 62 2 62 4 0 15 -16
24 -35z m-1565 -44 c24 -5 45 -5 48 0 3 5 14 4 25 -2 11 -5 52 -13 92 -17 58
-5 65 -7 37 -12 -34 -5 -35 -6 -36 -54 -1 -49 -13 -66 -43 -61 -9 2 -29 4 -44
4 -28 1 -28 2 -26 51 2 27 -1 53 -5 57 -8 9 -13 9 -73 11 -31 2 -43 6 -43 17
0 17 7 18 68 6z m4334 -107 c-1 -21 -4 -111 -5 -199 -1 -88 -6 -166 -11 -174
-6 -10 -6 -12 2 -7 9 5 12 -6 12 -38 0 -25 -5 -48 -10 -51 -6 -3 -8 -17 -6
-30 3 -14 0 -27 -5 -30 -5 -4 -9 -11 -9 -16 0 -6 4 -8 8 -5 4 2 8 -11 8 -29 0
-18 -4 -31 -8 -29 -4 3 -8 1 -8 -5 0 -5 4 -12 9 -15 14 -9 6 -41 -9 -41 -7 0
-15 -5 -17 -12 -3 -7 3 -11 14 -9 14 3 19 -2 19 -18 0 -13 -6 -23 -13 -23 -9
0 -10 4 -2 13 6 7 6 14 1 18 -11 6 -35 -18 -27 -26 3 -3 -2 -11 -12 -19 -9 -8
-14 -9 -10 -2 11 18 -9 25 -23 8 -9 -10 -9 -15 -1 -15 6 0 10 -3 10 -7 -3 -21
3 -24 18 -12 10 8 14 9 10 2 -4 -6 -3 -14 3 -18 6 -4 8 -11 4 -16 -3 -5 -11
-6 -17 -2 -7 4 -20 8 -29 9 -30 2 -31 4 -19 17 6 8 9 23 6 35 -4 23 9 36 38
38 30 3 31 4 11 18 -16 13 -21 13 -35 0 -14 -12 -16 -12 -16 0 0 8 5 14 11 13
6 -1 10 3 9 9 -1 7 8 20 20 30 14 12 17 13 9 3 -17 -22 -2 -32 19 -13 14 13
16 21 8 36 -8 15 -13 17 -25 7 -8 -6 -14 -8 -14 -4 0 4 -6 2 -14 -4 -8 -7 -17
-8 -19 -4 -9 14 8 34 24 31 8 -2 13 2 12 8 -1 6 7 11 17 10 11 0 20 2 20 7 1
24 -1 28 -9 22 -6 -3 -8 3 -6 14 4 24 -19 35 -35 16 -13 -15 -4 -39 11 -30 15
10 10 -1 -9 -18 -17 -16 -18 -13 -16 76 1 50 3 94 4 97 1 3 1 95 1 206 0 198
0 201 22 212 12 6 36 10 52 8 28 -2 30 -5 27 -42z m202 24 c-2 -3 0 -9 6 -13
6 -4 7 -13 2 -23 -5 -9 -8 -36 -7 -60 0 -24 -2 -45 -5 -47 -3 -2 -5 -46 -5
-98 1 -54 -3 -95 -8 -94 -5 1 -12 -4 -15 -12 -2 -8 0 -11 6 -7 6 3 13 2 16 -3
4 -5 2 -13 -4 -16 -8 -5 -7 -12 2 -23 10 -12 10 -14 0 -8 -12 7 -13 -17 -1
-39 3 -5 5 -28 5 -49 -1 -28 -6 -40 -17 -41 -9 -2 -16 3 -16 11 0 7 4 11 8 8
4 -2 10 0 13 5 4 5 -2 8 -11 6 -10 -1 -27 2 -38 8 -40 20 -46 50 -14 68 15 8
19 8 15 0 -5 -7 1 -11 15 -11 12 0 19 3 16 6 -3 4 -2 15 3 25 8 14 5 21 -12
33 -12 9 -16 16 -9 16 7 0 11 6 8 15 -4 8 -2 17 2 20 5 2 8 21 6 40 -1 20 2
38 7 41 4 3 8 10 8 15 0 6 -4 8 -9 4 -5 -3 -12 -1 -16 5 -4 6 -11 8 -16 4 -5
-3 -7 -9 -4 -14 3 -5 1 -11 -5 -15 -6 -4 -8 -10 -6 -14 3 -4 0 -8 -7 -8 -8 0
-13 14 -13 33 0 18 4 32 9 31 5 -1 12 4 14 11 3 7 -1 10 -9 7 -11 -5 -14 8
-14 58 1 66 8 75 40 48 9 -7 16 -10 16 -6 0 4 8 1 18 -6 16 -13 16 -13 2 5
-12 16 -12 18 -1 11 10 -6 12 -4 6 5 -5 8 -4 11 2 7 11 -7 11 22 -1 41 -4 7
-12 9 -18 6 -7 -5 -8 -2 -3 7 7 12 6 12 -7 1 -9 -7 -18 -9 -20 -5 -3 4 -3 2
-1 -5 1 -8 -2 -10 -9 -6 -6 4 -8 3 -4 -4 3 -6 2 -13 -3 -16 -5 -4 -12 -2 -15
3 -4 5 -1 13 5 16 5 4 8 12 6 19 -3 8 10 12 43 12 27 0 46 -4 44 -8z m-2720
-32 c11 4 16 2 14 -7 -2 -8 5 -14 16 -14 11 0 21 -6 24 -13 2 -6 9 -9 15 -5 7
3 9 3 5 -2 -4 -4 -2 -15 4 -23 7 -8 14 -35 15 -61 1 -25 3 -46 4 -46 9 0 11
-225 3 -310 -2 -27 -5 -107 -6 -177 -2 -69 -6 -124 -10 -122 -4 3 -8 1 -8 -5
0 -5 4 -12 8 -15 5 -3 7 -22 6 -43 -3 -50 -2 -49 -16 -35 -9 9 -16 8 -29 -4
-12 -11 -19 -12 -24 -4 -5 8 -10 8 -20 0 -8 -7 -15 -7 -19 -1 -4 5 -2 13 4 16
8 5 8 11 1 19 -8 10 -5 18 12 32 22 19 22 19 4 -2 -22 -26 -10 -40 16 -17 10
10 22 16 25 13 3 -3 7 5 9 18 1 13 -1 21 -6 18 -5 -3 -14 1 -21 9 -7 8 -17 12
-22 9 -6 -4 -5 -10 3 -15 8 -5 9 -9 3 -9 -17 0 -30 22 -29 50 0 15 6 24 14 22
7 -1 11 3 8 10 -2 7 -9 12 -14 11 -6 -1 -9 12 -7 30 2 18 6 116 8 219 2 103 7
191 10 197 4 5 3 12 -2 15 -4 2 -7 26 -7 53 1 26 -1 53 -5 58 -6 9 -6 28 0 40
2 5 6 18 9 31 0 4 8 1 16 -6 8 -7 15 -10 15 -6 0 3 0 9 0 14 0 10 -23 10 -37
-1 -7 -5 -10 -14 -6 -21 3 -6 2 -7 -2 -3 -5 4 -10 29 -12 55 -2 28 0 42 5 34
5 -7 16 -10 26 -6z m1101 -71 c1 0 10 7 19 15 30 24 43 20 40 -14 -1 -17 -3
-31 -3 -31 -1 0 -2 -88 -3 -195 -1 -108 -5 -201 -11 -208 -5 -6 -6 -12 -2 -12
4 0 1 -8 -6 -17 -8 -9 -9 -14 -3 -10 9 5 11 -28 10 -124 0 -72 2 -133 6 -135
3 -2 3 -18 -2 -34 -5 -16 -5 -32 -1 -34 4 -3 7 -17 6 -33 0 -27 -2 -28 -57
-30 -40 -2 -58 1 -59 10 0 6 -2 20 -4 30 -2 11 1 14 8 10 7 -4 19 -8 27 -8 8
0 20 -4 27 -8 6 -4 14 -3 18 3 4 6 10 8 15 5 5 -3 12 -1 15 5 4 6 3 10 -2 9
-4 -1 -10 0 -13 1 -14 6 -59 6 -55 0 2 -4 -3 -7 -11 -7 -10 0 -7 8 11 27 30
31 31 39 8 36 -10 -2 -18 -9 -18 -16 0 -7 -6 -15 -14 -18 -10 -3 -12 0 -8 11
3 9 2 19 -2 22 -8 4 -8 40 -1 70 1 6 1 12 0 15 -7 20 -7 40 1 40 6 0 7 6 2 13
-4 6 -8 37 -8 67 0 48 3 58 27 78 28 24 43 28 43 13 0 -5 4 -13 9 -18 5 -4 6
-3 3 3 -4 7 0 17 8 24 8 7 12 17 8 23 -4 6 -1 7 7 2 9 -5 11 -4 6 4 -4 6 -12
9 -17 6 -12 -8 -12 8 1 21 7 7 -2 10 -27 9 -21 -1 -43 2 -49 7 -6 4 -11 2 -11
-7 0 -7 3 -13 6 -13 3 1 14 -2 23 -6 23 -11 13 -26 -13 -21 -15 3 -18 1 -12
-8 12 -16 11 -37 -2 -37 -17 0 -12 174 5 195 9 11 10 16 3 11 -9 -5 -13 2 -13
24 0 22 4 29 13 24 10 -6 10 -4 0 7 -7 7 -13 17 -13 22 0 4 6 5 13 1 6 -4 9
-4 5 1 -4 4 -2 15 5 24 10 14 10 14 -4 4 -14 -11 -16 -8 -13 25 2 20 3 41 3
45 1 5 7 5 14 1 9 -6 9 -4 1 7 -9 11 -12 70 -4 89 1 3 2 9 0 15 -1 5 8 1 20
-10 12 -11 23 -20 25 -20z m-272 -123 c-6 -15 -5 -15 10 -3 9 7 17 10 17 6 0
-5 8 -1 18 7 9 8 23 14 30 14 14 -1 17 -21 3 -21 -5 0 -19 -13 -31 -28 -19
-24 -24 -26 -38 -15 -13 11 -14 11 -7 -1 5 -9 4 -12 -2 -8 -5 3 -10 0 -10 -8
0 -11 4 -12 14 -4 19 16 16 -1 -4 -23 -23 -26 -8 -22 18 5 20 20 21 20 15 2
l-6 -20 15 20 c9 11 20 20 25 20 4 0 12 3 16 7 3 4 -3 5 -15 3 -12 -2 -19 0
-16 6 4 5 11 6 17 3 8 -5 9 -1 5 12 -6 17 -6 17 6 3 8 -11 12 -38 10 -70 -2
-30 -3 -69 -3 -86 0 -18 0 -41 0 -50 0 -10 -1 -55 -2 -100 -1 -49 -6 -79 -11
-76 -6 4 -7 1 -1 -8 4 -8 9 -51 9 -97 1 -67 -2 -86 -17 -99 -10 -9 -18 -12
-18 -8 0 5 -13 -4 -30 -20 -16 -15 -27 -32 -24 -36 2 -4 0 -10 -5 -13 -5 -4
-8 2 -6 11 1 10 -2 23 -7 30 -6 7 -5 14 2 18 8 5 7 12 -2 23 -7 10 -8 14 -3 9
11 -10 45 22 39 37 -3 7 2 19 11 26 17 14 21 0 5 -16 -8 -8 -6 -15 6 -25 15
-12 17 -12 9 0 -6 10 -4 12 5 6 9 -6 11 -4 5 5 -6 9 -4 11 5 5 9 -6 11 -4 5 5
-6 9 -4 11 5 5 9 -5 11 -4 6 4 -4 6 -12 9 -17 6 -13 -9 -11 9 3 23 16 16 20
46 5 34 -10 -7 -50 -9 -85 -3 -5 0 -8 92 -6 204 3 190 7 243 18 255 3 2 1 12
-4 22 -10 18 -3 33 11 24 4 -2 5 -12 2 -22z m-993 -298 c0 -3 -4 -3 -9 0 -5 3
-14 0 -20 -8 -8 -10 -6 -20 10 -40 20 -26 20 -28 4 -46 -10 -11 -15 -20 -11
-20 4 0 4 -5 1 -10 -5 -8 -11 -8 -19 -1 -17 14 -29 2 -15 -15 7 -8 7 -14 -1
-19 -5 -3 -10 -12 -10 -18 0 -8 3 -8 9 1 7 11 9 10 14 -3 4 -9 3 -13 -3 -10
-5 3 -7 -3 -5 -15 2 -11 0 -22 -5 -25 -5 -3 -7 -12 -4 -20 4 -8 10 -12 15 -9
5 3 7 9 4 14 -7 11 22 7 32 -5 5 -4 1 -5 -7 0 -8 5 -12 4 -7 0 4 -5 14 -10 23
-11 13 -2 13 0 2 14 -11 13 -11 14 2 7 13 -8 13 -6 2 8 -16 19 -8 39 12 31 12
-5 14 -22 6 -44 -1 -3 -2 -9 -1 -13 1 -5 -8 -11 -19 -14 -20 -5 -25 -15 -13
-26 3 -4 14 0 24 9 15 14 17 14 15 0 -3 -21 -37 -57 -47 -50 -5 3 -9 -1 -10
-8 0 -11 -2 -11 -6 0 -4 10 -9 9 -24 -4 -10 -9 -16 -21 -12 -27 3 -5 1 -7 -5
-4 -9 6 -9 26 -2 47 1 3 3 70 4 150 1 109 4 145 14 145 6 0 11 3 10 6 -2 3 3
13 10 22 8 9 11 21 7 28 -6 8 -2 8 14 0 11 -7 21 -14 21 -17z"/>
<path d="M9274 458 c1 -7 4 -17 8 -23 5 -8 3 -70 -2 -70 -1 0 -3 -8 -5 -18 -2
-9 1 -15 6 -11 15 9 10 -13 -6 -26 -14 -12 -14 -15 1 -31 15 -17 11 -45 -5
-35 -4 3 -7 -6 -7 -19 0 -17 3 -21 12 -14 7 6 15 5 23 -5 12 -14 35 -16 48 -2
10 10 12 56 1 50 -4 -3 -8 -1 -8 5 0 5 4 12 9 15 8 5 8 14 2 45 -1 2 -7 -2
-15 -8 -10 -9 -16 -8 -26 3 -14 18 -4 40 13 29 23 -14 34 -11 33 11 -1 11 -4
21 -8 21 -9 0 -48 37 -48 46 0 9 20 7 38 -4 14 -9 13 -10 16 24 2 21 -1 26
-20 25 -13 -1 -26 -5 -30 -9 -4 -4 -13 -2 -20 4 -9 7 -12 6 -10 -3z"/>
<path d="M10348 418 c14 -18 6 -27 -19 -23 -11 2 -15 -5 -14 -24 1 -14 7 -25
13 -23 7 1 12 -2 12 -8 0 -5 0 -13 0 -17 0 -5 -4 -9 -10 -9 -21 -3 -22 -4 -12
-17 7 -8 7 -18 2 -27 -5 -8 -6 -19 -2 -25 4 -5 7 -13 8 -17 1 -5 2 -11 3 -14
0 -4 8 -1 16 6 8 7 15 8 15 2 0 -17 -25 -33 -37 -21 -7 7 -9 1 -7 -18 1 -15 2
-30 3 -32 1 -2 8 3 18 10 17 14 20 14 40 -3 18 -14 48 -2 36 15 -6 6 -9 42 -9
80 1 48 -2 67 -11 68 -7 1 -19 2 -25 3 -7 0 -13 10 -14 21 -1 28 5 37 19 28
23 -14 33 -10 33 12 0 15 -5 22 -15 20 -9 -1 -25 5 -36 14 -18 15 -19 15 -7
-1z"/>
</g>
</svg>
